<svg xmlns="http://www.w3.org/2000/svg" width="1200" height="750" viewBox="0 0 1200 750" role="img" aria-labelledby="title desc">
  <title id="title">Dreamy pet constellation art</title>
  <desc id="desc">A cat and dog under soft gold constellation lines.</desc>
  <defs>
    <radialGradient id="sky" cx="50%" cy="30%" r="80%">
      <stop offset="0" stop-color="#fffdf7"/>
      <stop offset="0.58" stop-color="#fbf6ef"/>
      <stop offset="1" stop-color="#fbeae8"/>
    </radialGradient>
    <filter id="soft" x="-20%" y="-20%" width="140%" height="140%">
      <feGaussianBlur stdDeviation="0.2"/>
    </filter>
  </defs>
  <rect width="1200" height="750" fill="url(#sky)"/>
  <circle cx="1000" cy="128" r="98" fill="#fff6d9" opacity="0.7"/>
  <g stroke="#c4a265" stroke-width="2" fill="none" opacity="0.58">
    <path d="M129 165l96 32 84-65 84 97 106-21"/>
    <path d="M714 142l74 72 98-28 76 86 112-30"/>
    <path d="M554 92l50 44 66-18"/>
  </g>
  <g fill="#c4a265" opacity="0.82">
    <circle cx="129" cy="165" r="5"/><circle cx="225" cy="197" r="5"/><circle cx="309" cy="132" r="4"/><circle cx="393" cy="229" r="5"/><circle cx="499" cy="208" r="4"/>
    <circle cx="714" cy="142" r="4"/><circle cx="788" cy="214" r="5"/><circle cx="886" cy="186" r="4"/><circle cx="962" cy="272" r="5"/><circle cx="1074" cy="242" r="4"/>
    <circle cx="554" cy="92" r="4"/><circle cx="604" cy="136" r="5"/><circle cx="670" cy="118" r="4"/>
  </g>
  <g filter="url(#soft)">
    <ellipse cx="615" cy="666" rx="420" ry="48" fill="#1c1c1c" opacity="0.07"/>
    <g transform="translate(310 320)">
      <path d="M92 232c-72-38-78-148-22-205 53-54 150-24 165 55 15 82-56 188-143 150z" fill="#d48a51"/>
      <path d="M71 44C45-16 135-10 121 54M178 46c18-70 106-31 58 30" fill="#d48a51"/>
      <circle cx="103" cy="117" r="13" fill="#1c1c1c"/>
      <circle cx="174" cy="115" r="13" fill="#1c1c1c"/>
      <path d="M125 164c28 21 54 19 79-4" stroke="#1c1c1c" stroke-width="8" stroke-linecap="round" fill="none"/>
      <path d="M78 210c-42 40-62 92-63 154h254c-5-72-25-122-59-153-40 34-89 34-132-1z" fill="#d48a51"/>
    </g>
    <g transform="translate(640 288)">
      <path d="M98 277c-80-44-102-154-46-226 52-66 151-66 209-6 66 68 44 185-44 229-39 20-80 21-119 3z" fill="#7a6f68"/>
      <path d="M71 53 43 0l74 28M225 31l79-18-42 57" fill="#7a6f68"/>
      <circle cx="121" cy="126" r="12" fill="#1c1c1c"/>
      <circle cx="204" cy="126" r="12" fill="#1c1c1c"/>
      <path d="M151 164c20 14 35 14 53 0" stroke="#1c1c1c" stroke-width="7" stroke-linecap="round" fill="none"/>
      <path d="M80 250c-50 46-73 95-76 148h315c-2-68-28-120-78-155-46 39-103 41-161 7z" fill="#7a6f68"/>
    </g>
  </g>
</svg>
