<svg xmlns="http://www.w3.org/2000/svg" width="960" height="1200" viewBox="0 0 960 1200" role="img" aria-labelledby="title desc">
  <title id="title">Framed pet soul card</title>
  <desc id="desc">A framed pet soul card on a bright cream wall.</desc>
  <defs>
    <linearGradient id="wall" x1="0" x2="1" y1="0" y2="1">
      <stop offset="0" stop-color="#ffffff"/>
      <stop offset="1" stop-color="#f7f4ef"/>
    </linearGradient>
    <filter id="shadow" x="-20%" y="-20%" width="140%" height="140%">
      <feDropShadow dx="0" dy="28" stdDeviation="34" flood-color="#1c1c1c" flood-opacity="0.16"/>
    </filter>
  </defs>
  <rect width="960" height="1200" fill="url(#wall)"/>
  <rect x="0" y="860" width="960" height="340" fill="#fafafa"/>
  <g filter="url(#shadow)" transform="translate(244 128)">
    <rect x="0" y="0" width="472" height="620" rx="12" fill="#8b5c31"/>
    <rect x="28" y="28" width="416" height="564" rx="6" fill="#d8b47d"/>
    <rect x="54" y="54" width="364" height="512" rx="4" fill="#fffdf8"/>
    <circle cx="236" cy="258" r="142" fill="#fbeae8" opacity="0.84"/>
    <circle cx="236" cy="258" r="174" fill="none" stroke="#c4a265" stroke-width="2" opacity="0.72"/>
    <circle cx="236" cy="258" r="108" fill="none" stroke="#c4a265" stroke-width="1.5" opacity="0.48"/>
    <g stroke="#c4a265" stroke-width="1.5" opacity="0.68">
      <path d="M236 84v348M62 258h348M113 135l246 246M359 135 113 381"/>
    </g>
    <path d="M175 285c-8-78 56-134 133-107 65 23 78 105 30 154-60 62-156 30-163-47z" fill="#2c2926"/>
    <path d="M184 189l-31-62 79 29M298 157l86-16-48 67" fill="#2c2926"/>
    <circle cx="218" cy="263" r="11" fill="#fffdf8"/>
    <circle cx="288" cy="263" r="11" fill="#fffdf8"/>
    <circle cx="221" cy="264" r="5" fill="#1c1c1c"/>
    <circle cx="291" cy="264" r="5" fill="#1c1c1c"/>
    <path d="M235 315c24 15 48 15 72-1" stroke="#fffdf8" stroke-width="7" stroke-linecap="round" fill="none"/>
    <rect x="124" y="472" width="224" height="12" rx="6" fill="#1c1c1c" opacity="0.14"/>
    <rect x="154" y="502" width="164" height="9" rx="4.5" fill="#c4a265" opacity="0.45"/>
  </g>
  <g transform="translate(102 828)" opacity="0.9">
    <rect x="0" y="112" width="130" height="18" rx="9" fill="#1c1c1c" opacity="0.08"/>
    <path d="M50 116c8-90 15-155 24-196M70 116c18-75 39-128 62-159M53 88c-25-20-39-47-43-79M81 76c-10-38-7-71 9-99" stroke="#8b6f3a" stroke-width="4" fill="none" stroke-linecap="round"/>
    <ellipse cx="30" cy="32" rx="24" ry="10" fill="#c4a265" opacity="0.5" transform="rotate(36 30 32)"/>
    <ellipse cx="113" cy="-32" rx="26" ry="11" fill="#bf524a" opacity="0.28" transform="rotate(-28 113 -32)"/>
    <ellipse cx="96" cy="23" rx="22" ry="9" fill="#c4a265" opacity="0.42" transform="rotate(-14 96 23)"/>
  </g>
</svg>
