<svg xmlns="http://www.w3.org/2000/svg" width="960" height="1200" viewBox="0 0 960 1200" role="img" aria-labelledby="title desc">
  <title id="title">Soul reading spread</title>
  <desc id="desc">A warm tabletop with a pet soul reading page, chart marks, petals, and gold details.</desc>
  <defs>
    <linearGradient id="paper" x1="0" x2="1" y1="0" y2="1">
      <stop offset="0" stop-color="#fffefb"/>
      <stop offset="1" stop-color="#f7efe4"/>
    </linearGradient>
    <filter id="shadow" x="-20%" y="-20%" width="140%" height="140%">
      <feDropShadow dx="0" dy="22" stdDeviation="26" flood-color="#1c1c1c" flood-opacity="0.14"/>
    </filter>
  </defs>
  <rect width="960" height="1200" fill="#fafafa"/>
  <rect x="0" y="0" width="960" height="1200" fill="#fbf6ef" opacity="0.75"/>
  <g opacity="0.45">
    <ellipse cx="146" cy="206" rx="58" ry="18" fill="#e8b4ab" transform="rotate(-18 146 206)"/>
    <ellipse cx="810" cy="314" rx="68" ry="20" fill="#e8b4ab" transform="rotate(22 810 314)"/>
    <ellipse cx="160" cy="940" rx="72" ry="21" fill="#d6bf8a" transform="rotate(15 160 940)"/>
  </g>
  <g filter="url(#shadow)" transform="translate(207 112) rotate(2 275 445)">
    <rect x="0" y="0" width="550" height="890" rx="22" fill="url(#paper)" stroke="#ededed" stroke-width="2"/>
    <rect x="50" y="64" width="450" height="1.5" fill="#c4a265" opacity="0.5"/>
    <rect x="74" y="110" width="240" height="18" rx="9" fill="#1c1c1c" opacity="0.14"/>
    <rect x="74" y="154" width="340" height="11" rx="5.5" fill="#7a7a7a" opacity="0.18"/>
    <rect x="74" y="180" width="286" height="11" rx="5.5" fill="#7a7a7a" opacity="0.18"/>
    <g transform="translate(275 398)">
      <circle r="176" fill="none" stroke="#c4a265" stroke-width="2.4"/>
      <circle r="118" fill="none" stroke="#c4a265" stroke-width="1.4" opacity="0.6"/>
      <circle r="62" fill="#fbeae8" opacity="0.9"/>
      <g stroke="#c4a265" stroke-width="1.4" opacity="0.75">
        <path d="M0-176V176M-176 0H176M-124-124 124 124M124-124-124 124"/>
      </g>
      <path d="M-41 12c9-52 64-70 96-28 24 32 8 74-29 91-42 20-74-26-67-63z" fill="#b87953"/>
      <path d="M-53-12c-14-34 32-43 45-16M50-37c24-24 58 7 29 37" fill="#b87953"/>
      <circle cx="-17" cy="16" r="6" fill="#1c1c1c"/>
      <circle cx="28" cy="14" r="6" fill="#1c1c1c"/>
    </g>
    <g fill="#c4a265" opacity="0.85">
      <circle cx="108" cy="274" r="4"/><circle cx="448" cy="296" r="3"/><circle cx="118" cy="638" r="3"/><circle cx="456" cy="690" r="4"/>
      <path d="M425 120l7 24 24 7-24 7-7 24-7-24-24-7 24-7z"/>
      <path d="M104 740l5 17 17 5-17 5-5 17-5-17-17-5 17-5z"/>
    </g>
    <rect x="74" y="650" width="394" height="11" rx="5.5" fill="#7a7a7a" opacity="0.16"/>
    <rect x="74" y="680" width="324" height="11" rx="5.5" fill="#7a7a7a" opacity="0.16"/>
    <rect x="74" y="710" width="360" height="11" rx="5.5" fill="#7a7a7a" opacity="0.16"/>
    <circle cx="412" cy="792" r="42" fill="#bf524a" opacity="0.92"/>
    <path d="M384 792h56M412 764v56" stroke="#fff8f5" stroke-width="3" opacity="0.65"/>
  </g>
</svg>
