<svg xmlns="http://www.w3.org/2000/svg" viewBox="0 0 100 100" width="100" height="100" role="img" aria-label="Canis Major star chart"><title>Canis Major — the Great Dog</title><rect width="100" height="100" fill="#fbeae8"/><circle cx="50" cy="50" r="46" fill="#fffdfb"/><g stroke="#bf524a"><line x1="50.00" y1="8.40" x2="50.00" y2="4.60" stroke-width="0.9" opacity="0.6"/><line x1="71.30" y1="13.11" x2="72.70" y2="10.68" stroke-width="0.6" opacity="0.4"/><line x1="86.89" y1="28.70" x2="89.32" y2="27.30" stroke-width="0.6" opacity="0.4"/><line x1="91.60" y1="50.00" x2="95.40" y2="50.00" stroke-width="0.9" opacity="0.6"/><line x1="86.89" y1="71.30" x2="89.32" y2="72.70" stroke-width="0.6" opacity="0.4"/><line x1="71.30" y1="86.89" x2="72.70" y2="89.32" stroke-width="0.6" opacity="0.4"/><line x1="50.00" y1="91.60" x2="50.00" y2="95.40" stroke-width="0.9" opacity="0.6"/><line x1="28.70" y1="86.89" x2="27.30" y2="89.32" stroke-width="0.6" opacity="0.4"/><line x1="13.11" y1="71.30" x2="10.68" y2="72.70" stroke-width="0.6" opacity="0.4"/><line x1="8.40" y1="50.00" x2="4.60" y2="50.00" stroke-width="0.9" opacity="0.6"/><line x1="13.11" y1="28.70" x2="10.68" y2="27.30" stroke-width="0.6" opacity="0.4"/><line x1="28.70" y1="13.11" x2="27.30" y2="10.68" stroke-width="0.6" opacity="0.4"/></g><circle cx="50" cy="50" r="45.4" fill="none" stroke="#bf524a" stroke-width="1.3"/><circle cx="50" cy="50" r="41.4" fill="none" stroke="#bf524a" stroke-width="0.5" opacity="0.4"/><g stroke="#bf524a" stroke-width="1.15" stroke-linecap="round" stroke-linejoin="round" opacity="0.5" fill="none"><line x1="55.5" y1="35.91" x2="47.14" y2="37.01"/><line x1="47.14" y1="37.01" x2="48.52" y2="20.71"/><line x1="47.14" y1="37.01" x2="40.96" y2="32.39"/><line x1="55.5" y1="35.91" x2="72.97" y2="39.94"/><line x1="55.5" y1="35.91" x2="44.28" y2="59.04"/><line x1="44.28" y1="59.04" x2="37.42" y2="67.36"/><line x1="37.42" y1="67.36" x2="45.01" y2="75.74"/><line x1="37.42" y1="67.36" x2="25.19" y2="76.82"/><line x1="45.01" y1="75.74" x2="74.81" y2="79.29"/></g><circle cx="55.5" cy="35.91" r="5.50" fill="#bf524a" opacity="0.12"/><circle cx="45.01" cy="75.74" r="4.40" fill="#bf524a" opacity="0.12"/><g fill="#bf524a" stroke="#fffdfb" stroke-width="0.85"><circle cx="55.5" cy="35.91" r="3.5"/><circle cx="72.97" cy="39.94" r="2.23"/><circle cx="40.96" cy="32.39" r="1.44"/><circle cx="48.52" cy="20.71" r="1.45"/><circle cx="47.14" cy="37.01" r="1.34"/><circle cx="44.28" cy="59.04" r="1.84"/><circle cx="37.42" cy="67.36" r="2.28"/><circle cx="45.01" cy="75.74" r="2.4"/><circle cx="25.19" cy="76.82" r="2.05"/><circle cx="74.81" cy="79.29" r="1.84"/></g><path d="M55.5 28.51 L56.30 35.11 L62.90 35.91 L56.30 36.71 L55.5 43.31 L54.70 36.71 L48.10 35.91 L54.70 35.11 Z" fill="#bf524a" opacity="0.85"/></svg>